<svg xmlns="http://www.w3.org/2000/svg" viewBox="0 0 211 80"><defs><style>.cls-1{isolation:isolate;}.cls-2{fill:#344759;}.cls-3{fill:#28130d;}.cls-4{fill:#4b5969;}.cls-5{fill:#bdd3d9;}.cls-6{fill:#8baab0;}.cls-7{fill:#ccc;}.cls-8{fill:#b06e59;}.cls-9{fill:#ffd09a;opacity:0.37;}.cls-10,.cls-9{mix-blend-mode:hard-light;}.cls-10{fill:#dbfffc;opacity:0.23;}.cls-11{fill:#a55432;}.cls-12{fill:#819bb0;}.cls-13{fill:#3a2e2c;}.cls-14{fill:#3e2219;}</style></defs><g class="cls-1"><g id="Layer_4" data-name="Layer 4"><path class="cls-2" d="M51.31,34.36c16.57,0,21.89,12.17,23.57,21a10,10,0,0,0,10.59,8.11c15-1.19,42.08-3.93,45.87-8.46,5.28-6.31,10.26-22.47,29.43-21.79S183.47,49.68,186.64,50a198.21,198.21,0,0,0,23,.26c0,4-1.2,14.27-1.2,14.27s-15.34,2.21-28.61,3.6a21.11,21.11,0,0,0-19.23-30.31,21.13,21.13,0,0,0-18.1,31.77c-27.29.25-46.89,0-73.95-.25a21.16,21.16,0,1,0-37.1-.88C19.15,68.2,4.38,68,4.38,68s-.26-1.4-.52-3.56l12.78,0a9.28,9.28,0,0,0,9.23-8C27.11,47.58,32.18,34.39,51.31,34.36Z"/><path class="cls-3" d="M50.23,37.65A21.13,21.13,0,0,1,68.54,69.38c-11.19-.12-20-.28-24.47-.48-3-.14-7.62-.27-12.63-.4A21.13,21.13,0,0,1,50.23,37.65Z"/><path class="cls-3" d="M161,37.65A21.13,21.13,0,0,1,180,68c-3.86.41-7.66.74-11,.94-4,.23-13.71.41-26.3.53A21.13,21.13,0,0,1,161,37.65Z"/><path class="cls-4" d="M209.45,48.72a60.54,60.54,0,0,0-1.47-8c-3.59-13.51-10.37-9.4-15.45-17.17-3.77-5.76-6.83-10.13-6.83-10.13S193.76,12,192.3,10h0c-.8-1.14-4.43-2.5-13.76-4l-.68-.11c-21.26-3.29-26.34-3.15-38.67-3.74-14-.66-26.56,1.19-40.33,4.64C84.3,10.41,62.55,26.1,62.55,26.1s-3.87.35-9.9,1.15C42.94,28.54,27.63,31,13.9,35c-1.34.39-4.57,9.31-5.27,10.37C7,47.86,5,44.48,3.92,49.47c-.07.32-.13.69-.19,1.09a48,48,0,0,0-.2,10.55c.09,1.22.21,2.34.32,3.31l12.48,0a9.67,9.67,0,0,0,9.58-8.27c1.32-8.9,6.49-21.79,25.4-21.82,16.61,0,21.91,12.22,23.58,21a10.43,10.43,0,0,0,10.59,8.49c15.27-.53,43.27-2.11,47.08-6.66,5.29-6.3,10.26-22.47,29.43-21.79s22.7,16.51,25.87,16.88c2.38.27,13.49-1.48,21.77-2C209.57,49.76,209.51,49.23,209.45,48.72Z"/><path class="cls-5" d="M13.16,39.38c3.14-3.5,9.14-5,15.13-5.76,3.84-.46,2.37,4.06.82,7.36-.86,1.84-1.17,3.29-4,3.45-3.76.2-15,1-15,1S12.14,40.51,13.16,39.38Z"/><path class="cls-6" d="M26.12,43.25c-.19.4-.35.78-.52,1.13,2.37-.28,2.7-1.67,3.51-3.4,1.55-3.3,3-7.82-.82-7.36-5.88.7-11.77,2.2-14.95,5.57,3.26-1.82,7.61-2.78,12-3.3C29.14,35.43,27.66,40,26.12,43.25Z"/><path class="cls-2" d="M75.55,27.65,75.14,41.4c0,7.71.61,10.76,2.46,13.9.67,1.15,2.47,4.2,8.64,3.72,10.08-.81,33.5-2.77,37.4-3.33,4.65-.67,4.7-1.81,4.87-6.06,0-.54,0-1.13.08-1.76.31-5.6.19-20.66.19-20.81l1.16,0c0,.15,0,15.7-.33,21.33,0,.63-.06,1.21-.08,1.75-.18,4.35-.63,5.54-5.81,6.28-3.92.56-27.35,2.52-37.44,3.33-.46,0-.89.06-1.31.06-5.5,0-7.28-3-7.9-4.09-1.87-3.18-2.88-6.4-2.88-14.24l.31-13.8Z"/><path class="cls-2" d="M19,52.9c-1,2.24-2,4.47-3,6.71a2.53,2.53,0,0,1-2.31,1.5h-12a48.67,48.67,0,0,1,.2-10.55c.06-.4.13-.77.2-1.09l14.61-.14A2.53,2.53,0,0,1,19,52.9Z"/><path class="cls-7" d="M115.25,31.33H124a1.56,1.56,0,1,1,0,3.11h-8.7a1.56,1.56,0,1,1,0-3.11Z"/><path class="cls-8" d="M129.34,5.87c.06,2,.12,4,.18,6,.13,5.05.27,10.23.41,15.13v.34l.06.05,1.68-.09h0c8.89-.48,21.1-1,31.61-1.44,3.61-.16,7-.33,10-.49l1.21-.07c-.11-1.1-.27-2.64-.44-4.37A16.1,16.1,0,0,0,159,6.51C147.71,5.88,133.37,5.49,129.34,5.87Z"/><path class="cls-9" d="M130.84,8.25c.17,6,.34,12.45.51,18.42,4.07-.23,9.14-.46,14.44-.69l8-.35,10.11-.46c2-.1,3.84-.19,5.54-.29-.43-4.35-1.11-10.75-1.54-15.1-4.67-.9-30.2-2-36.58-1.57Z"/><path class="cls-8" d="M72.44,28.64l34.79-.94,20.62-.56-.6-14.25-.3-7a95.31,95.31,0,0,0-24.56,3A52.88,52.88,0,0,0,80.53,20,57.59,57.59,0,0,0,72.44,28.64Z"/><path class="cls-9" d="M79.43,28.64l11.31-.31,2.11-.06,16.8-.45.6,0,17.3-.46Q127.28,21.15,127,15c0-.46,0-.92,0-1.38-.07-1.57-.14-3.14-.2-4.71a82.94,82.94,0,0,0-21.33,2.6,46.21,46.21,0,0,0-19,9.62A50.07,50.07,0,0,0,79.43,28.64Z"/><path class="cls-10" d="M163.35,7.27a70.1,70.1,0,0,0-15,0,68.4,68.4,0,0,0-18.85,4.69c-.05-1.63-.1-3.25-.14-4.84a1.77,1.77,0,0,0,0-.23l0-1c1.59-.15,4.77-.18,8.73-.12h2.8l.7,0h1.15l2,.06.68,0,.7,0,.57,0L149,6l2.18.09h.2l.52,0L155,6.3l.76,0,2.11.11.66,0,.82,0A15.76,15.76,0,0,1,163.35,7.27Z"/><path class="cls-11" d="M120.89,21.76a1.46,1.46,0,0,1-1.67.84.54.54,0,0,1-.15-.09c-.53.6-1,1.2-1.57,1.81-.3.05-3.78.64-5.13-.21a1.66,1.66,0,0,1-.65-.67c-.28-.58,0-1.18,0-1.62,0-1,0-1.93.08-2.88a15.09,15.09,0,0,1,.79-1.31s0-.06,0-.08,0,0,.07,0l.06-.13c0-.13.06-.45.1-.79-.11,0-.17,0-.17,0a.48.48,0,0,1,.18-.05,5.76,5.76,0,0,1,.15-.8,7.33,7.33,0,0,1,.51-1.5,1.92,1.92,0,0,1-.76-.64,1.79,1.79,0,0,1-.25-.45c-.18-.41.16-1,.61-.63-.38-1.46,1.71-.81,2.16-.31-.19-1.24,1.85-1.45,3.67.91.16-.43,3.18.93,3.24,3.15a6.18,6.18,0,0,1-1.09,3.48q-.16.24-.33.45A1.41,1.41,0,0,1,120.89,21.76Z"/><path class="cls-11" d="M163.33,25.9,129.93,27c0,.11,0,.22,0,.34l1.74,0h0C140.61,26.86,152.82,26.38,163.33,25.9Z"/><path class="cls-11" d="M110.25,27.8l17.3-.46Q127.28,21.15,127,15c0-.46,0-.92,0-1.38a5.75,5.75,0,0,0-2,.53,6.78,6.78,0,0,0-2.86,2.7h0a10.79,10.79,0,0,0-1.26,3.24h0c0,.09-.05.18-.06.26a13.25,13.25,0,0,0-.26,1.92h0a18.46,18.46,0,0,0,.22,4.34l-2.93-2.65-1.17-1.05-3.61.8a1.35,1.35,0,0,1-.17.66C112.27,25.5,110.2,26.63,110.25,27.8Z"/><path class="cls-9" d="M165.58,24.14l-1.64,1c2-.1,3.84-.19,5.54-.29-.43-4.35-1.11-10.75-1.54-15.1-4.67-.9-30.2-2-36.58-1.57Z"/><path class="cls-11" d="M160.3,26.05c3.61-.17,8.83-.48,11.84-.64-.54-4.05-1.07-8.12-1.61-12.17a6.56,6.56,0,0,0-5.09-.13C162.11,14.59,160.5,18.91,160.3,26.05Z"/><path class="cls-11" d="M174.57,25.34h-.12c-.08-.8-.18-1.82-.3-3a16.38,16.38,0,0,0-15.4-14.7c-3.32-.18-6.89-.34-10.38-.47-8.31-.3-16.15-.42-19-.15h0V6.84l0-1c1.59-.15,4.77-.18,8.73-.12h2.8l.7,0h1.15l2,.06.68,0,.7,0,.57,0L149,6l2.18.09h.2l.52,0L155,6.3l.76,0,2.11.11.66,0,.82,0a15.65,15.65,0,0,1,14.7,14C174.28,22.46,174.45,24.16,174.57,25.34Z"/><path class="cls-11" d="M90.74,28.33l2.11-.06c-1-4.18-2.12-7.34-2.64-7.22S90,24.31,90.74,28.33Z"/><path class="cls-10" d="M72.44,28.64l34.79-.94a57.83,57.83,0,0,1,9.84-8.95,59,59,0,0,1,10.18-5.86l-.3-7a95.31,95.31,0,0,0-24.56,3A52.88,52.88,0,0,0,80.53,20,57.59,57.59,0,0,0,72.44,28.64Z"/><path class="cls-11" d="M72.44,28.64,75,28.57a57.09,57.09,0,0,1,7.33-7.72A53,53,0,0,1,104.19,9.77a94.87,94.87,0,0,1,22.8-3c0-.3,0-.6,0-.91a95.31,95.31,0,0,0-24.56,3A52.88,52.88,0,0,0,80.53,20,57.59,57.59,0,0,0,72.44,28.64Z"/><path class="cls-12" d="M192.3,10a296.9,296.9,0,0,0-42-5.58,164.28,164.28,0,0,0-30.25.6c-8.32,1-16.41,1.92-26,5.69A80.66,80.66,0,0,0,70.69,24.76a12.32,12.32,0,0,1-9.19,2.93c-2.65-.25-5.61-.43-8.85-.44,6-.8,9.9-1.15,9.9-1.15S84.3,10.41,98.86,6.77c13.77-3.45,26.29-5.3,40.33-4.64,12.33.59,17.41.45,38.67,3.74l.68.11C187.87,7.46,191.5,8.82,192.3,10Z"/><polygon class="cls-13" points="77.23 27.44 75.74 31.03 71.54 28.64 76.8 23.95 77.23 27.44"/><path class="cls-4" d="M75.22,26.8c.58,1.9,4.12,2.49,7.92,1.34s4.17-2.4,4.83-4.27c2.15-6.06-3.13-3.77-6.93-2.61S74.64,24.9,75.22,26.8Z"/><path class="cls-2" d="M75.22,26.8c.58,1.9,4.12,2.49,7.92,1.34A12,12,0,0,0,85.77,27a15.63,15.63,0,0,1-1.71.34c-3.92.6-7.34-.51-7.64-2.48a2.1,2.1,0,0,1,.28-1.34C75.51,24.61,74.91,25.79,75.22,26.8Z"/><polygon class="cls-14" points="1.7 51.73 14.55 51.73 13.94 53.16 1.61 53.16 1.7 51.73"/><polygon class="cls-14" points="1.61 54.68 13.32 54.59 12.91 55.81 1.61 55.81 1.61 54.68"/><polygon class="cls-14" points="1.7 56.83 12.3 56.83 11.69 57.64 1.52 57.86 1.7 56.83"/><path class="cls-12" d="M181.84,30.66c0,.27,6.47-.47,13.93,1a10,10,0,0,1,4.81,2.09c2.31,2,2.93,4.69,3.18,4.61.44-.15.7-3.72-1.32-6.09-1-1.23-2.68-2.11-7.4-2.52C187.72,29.14,181.81,30.4,181.84,30.66Z"/><path class="cls-5" d="M209.45,48.72l-5,.1a3,3,0,0,1-3-2.51c-.11-.65-.21-1.29-.31-1.93a3,3,0,0,1,2.77-3.45l4-.24A60.54,60.54,0,0,1,209.45,48.72Z"/><path class="cls-6" d="M203,44.58c.11.64.21,1.29.31,1.93a3,3,0,0,0,1.83,2.3h-.66a3,3,0,0,1-3-2.51c-.11-.65-.21-1.29-.31-1.93a3,3,0,0,1,2.77-3.45l4-.24c0,.1.05.21.08.31l-2.29.14A3,3,0,0,0,203,44.58Z"/></g></g></svg>