<svg xmlns="http://www.w3.org/2000/svg" viewBox="0 0 445 154"><defs><style>.cls-1{isolation:isolate;}.cls-2{fill:#fce28b;}.cls-3{fill:#fdd36c;}.cls-4{fill:#ccc;}.cls-5{fill:#cbaca1;}.cls-6{fill:#ba8989;}.cls-7{fill:#3e2219;}.cls-8{fill:#424242;}.cls-9{fill:#b06e59;}.cls-10{fill:#eb6d4a;}.cls-11{fill:#ff7e5f;}.cls-12{fill:#ffd09a;opacity:0.37;}.cls-12,.cls-14{mix-blend-mode:hard-light;}.cls-13{fill:#814c44;}.cls-14{fill:#dbfffc;opacity:0.23;}.cls-15{fill:#6a3c37;}</style></defs><g class="cls-1"><g id="Layer_10" data-name="Layer 10"><rect class="cls-2" x="92.82" y="0.25" width="134.33" height="29" rx="2.03"/><path class="cls-3" d="M61.76,9.9,430.38,4.75c4.94,0,14.66,8.53,14.66,13.46l-4.15,15H32.56s-6.13,24.24-6.87,41.06c-.13,3-.33,8.85-.54,15-.14,4.47-1.28,13.46-9.34,13.46,1.1-23.34,4.51-53.67,4.51-53.67C23.43,25.72,40.21,9.9,61.76,9.9Z"/><path class="cls-4" d="M15.81,102.74c-.12,2.63-.22,5.17-.27,7.57h0s0-2.74.29-7.57Z"/><path class="cls-5" d="M25.15,89.28c.21-6.16.41-12,.54-15,.74-16.82,6.87-41.06,6.87-41.06H440.89v77.1H15.54c.05-2.4.15-4.94.27-7.57C23.87,102.74,25,93.75,25.15,89.28Z"/><path class="cls-6" d="M32.56,110.31H440.89v13.22c-29.84,5.46-56,8.72-56,8.72H31.31c-4.8,0-14.67-.12-15.51-8.72a115.64,115.64,0,0,1-.26-13.22Z"/><path class="cls-7" d="M349.6,98.19A27.19,27.19,0,0,1,376,132.13H323.15A27.19,27.19,0,0,1,349.6,98.19Z"/><path class="cls-7" d="M136.76,98.19a27.29,27.29,0,0,1,27.29,27.3,27,27,0,0,1-.85,6.64H110.31a27.23,27.23,0,0,1,26.45-33.94Z"/><path class="cls-8" d="M59.51,18.22H440.24c.22,0,4.58,0,4.8,0l-4.15,15H32.56C36.59,24.49,47.15,18.22,59.51,18.22Z"/><path class="cls-6" d="M32.56,33.21H440.89V78.29H37.22c-5.73,0-9.23-.61-10.43-4-1.5-4.25-1.05-9.28-.18-16.8C28.42,41.87,32.56,33.21,32.56,33.21Z"/><polygon class="cls-8" points="311.97 129.1 263.26 129.1 259.17 36.57 315.17 36.57 311.97 129.1"/><polygon class="cls-9" points="288.21 126.73 306.62 126.73 310.39 75.65 312.96 40.79 289.2 40.79 289.17 43.56 288.87 69.28 288.81 74.97 288.21 126.73"/><polygon class="cls-9" points="262.86 40.79 262.99 43.56 264.4 74.21 266.82 126.73 285.62 126.69 284.55 74.84 284.44 69.33 283.91 43.56 283.85 40.79 262.86 40.79"/><path class="cls-10" d="M38.85,116.16l-7.26,6.4a3.34,3.34,0,0,1-2.21.84H19.08a3.35,3.35,0,0,1-3.35-3.28l-.13-6.4A3.36,3.36,0,0,1,19,110.31H36.63A3.35,3.35,0,0,1,40,113.65h0A3.34,3.34,0,0,1,38.85,116.16Z"/><path class="cls-11" d="M32.84,115.45,27.69,120a2.33,2.33,0,0,1-1.57.6H18.81a2.37,2.37,0,0,1-2.37-2.33l-.09-4.54a2.37,2.37,0,0,1,2.37-2.42H31.27a2.37,2.37,0,0,1,2.37,2.37h0A2.37,2.37,0,0,1,32.84,115.45Z"/><polygon class="cls-3" points="27.82 45.72 8.4 45.72 8.45 42.77 27.82 40.87 27.82 45.72"/><path class="cls-3" d="M.52,61.1C1.76,69.76,4.8,76.28,7.33,75.67s3.56-8.12,2.33-16.77S5.37,43.72,2.85,44.33-.72,52.45.52,61.1Z"/><polygon class="cls-3" points="8.45 42.77 2.92 44.31 9.72 59.42 8.03 47.51 9.21 45.74 8.45 42.77"/><polygon class="cls-8" points="376.92 36.83 374.94 74.45 320.49 74.45 318.5 36.63 376.92 36.83"/><polygon class="cls-9" points="322.27 39.8 324.25 72.87 350.85 72.21 372.37 71.68 373.16 61.55 374.94 39.01 322.27 39.8"/><polygon class="cls-12" points="362.46 68.71 326.03 69.89 326.82 42.77 366.82 42.77 362.46 68.71"/><path class="cls-13" d="M350.85,72.17v0l21.52-.53.79-10.13a25,25,0,0,0-2.59-1.25l-.06-.08a1.31,1.31,0,0,0-.91-.38,2.91,2.91,0,0,0-.32,0l-.08,0h0l-.05,0a15.7,15.7,0,0,0-3.89.63l-1.54-2.12c0-.16,0-.35,0-.55,0-2.55.63-3.47.36-5.43a4.61,4.61,0,0,0-.54-1.78,4.41,4.41,0,0,0-2-1.73,4.11,4.11,0,0,0-2.08-.88,5,5,0,0,0-2.62.63c-.9.37-2.28.94-4.11,1.66l1.13.77-.83.25a3.42,3.42,0,0,0,1.65.83,4.48,4.48,0,0,0-.3,2c-.19.1-.34.33-.28.46s.1.13.68.12a.8.8,0,0,1,.2.34,2,2,0,0,1,0,.86c-.45-.24-.58-.26-.6-.23s.2.33.46.51l.08.05c0,.13-.05.26-.07.39a1.33,1.33,0,0,0-.24.25l.21-.12a6.37,6.37,0,0,0-.1.8c.08,2.7,2.54,5.37,2.54,5.37l.46-.11A12.19,12.19,0,0,0,360,62l0,.09c-2.8,1.06-5.15,2.2-5.54,2.74,0,0,0,0,0,0q-.45.49-.9,1a25.11,25.11,0,0,0-3,4.74l-.49,0c-.11.27-.24.55-.35.82Z"/><polygon class="cls-14" points="372.37 71.68 363.85 45.94 326.62 57.22 324.25 73.66 322.27 39.8 374.94 39.01 372.37 71.68"/><polygon class="cls-14" points="336.5 39.58 340.09 69.5 338.31 69.5 324.31 39.77 336.5 39.58"/><polygon class="cls-14" points="345.51 39.58 344.05 68.31 342.27 68.31 340.09 40.79 345.51 39.58"/><polygon class="cls-8" points="434.74 36.63 380.68 36.63 376.92 74.45 430.58 73.26 434.74 36.63"/><polygon class="cls-9" points="380.09 72.27 414.98 71.27 428.4 70.89 428.6 70.89 428.63 70.45 428.94 65.98 430.78 39.01 382.27 39.01 380.09 72.27"/><polygon class="cls-12" points="419.1 68.31 382.66 69.5 383.45 42.37 423.45 42.37 419.1 68.31"/><path class="cls-13" d="M411.51,59.15c0,.08.13.17.36.24a.33.33,0,0,0,.23.61l0,0a1.51,1.51,0,0,1,.24.63c.07.45,0,.66.08.8s1,.15,3.45-1.14h0l.09,0a10.86,10.86,0,0,0,.76,1.31l-.32.09c.17.34.33.68.49,1-1.19.5-2,.94-2.07,1l0,.12-.09.07c-.36,1.13.24,3.87.5,5h0c-.09,1-.21,1.82-.32,2.43l13.42-.38c.08-.14.16-.29.23-.44l.31-4.47c-.35-.78-.7-1.54-1-2.26-.62-1.35-1.11-2.11-2-2.51a3.44,3.44,0,0,0-2.73.07h-.09a9.06,9.06,0,0,0-2.06.13l-.75-.9-.35.1a7.92,7.92,0,0,1-.74-1.49,3.25,3.25,0,0,1-.19-.79l.14.18a2,2,0,0,0,1.27.61c-.7-.46-1.51-1.06-1.39-1.4s.37-.15.75-.31c1-.42,2.52-1.15,2.68-1.72a3.13,3.13,0,0,0,0-1.25,2.28,2.28,0,0,0,.59.11,2.14,2.14,0,0,0,1.15-.27c1.26-.68,1.66-2.56,1.35-4A4.7,4.7,0,0,0,424.14,48h0c-.88-.83-1.93-1.24-2.43-1l-.07.05a1,1,0,0,0-.34.58,4.91,4.91,0,0,0-.14,1h0c0,.43,0,.76-.1.77s0-.94-.62-1.59l0,0a2.2,2.2,0,0,0-1.86-.64.7.7,0,0,0-.36.19.44.44,0,0,0-.08.2,2.33,2.33,0,0,0,.29,1.16,4.6,4.6,0,0,0-1.19-.35,6.37,6.37,0,0,0-1.12-.06h0a4.45,4.45,0,0,0-1,.16l-.19.06a2.93,2.93,0,0,0-1.15.71.93.93,0,0,0-.1.1h0a2.05,2.05,0,0,0-.64,1.48,1.69,1.69,0,0,0,0,.3c-.18-.26-.44-.53-.65-.48a.3.3,0,0,0-.17.12,2.61,2.61,0,0,0-.24,1.42,3.44,3.44,0,0,0,.58,1.67,3.81,3.81,0,0,1-.4-1.68,2.39,2.39,0,0,1,.2-1.1.3.3,0,0,1,.14-.11c.19-.05.43.18.59.37a1.52,1.52,0,0,0,.39.69s0,.06,0,.09c-.18.69-.35,1.39-.53,2.08h-.08l.09.37H413l.12.55a4.71,4.71,0,0,1-.3.5,2,2,0,0,0-.42.11s.11.07.27.11c-.1.14-.21.29-.34.44a7.66,7.66,0,0,1-1.2,1.14c.29.28.58.56.86.85l-.37.73h0C411.52,59.08,411.51,59.13,411.51,59.15Z"/><polygon class="cls-14" points="430.78 39.01 389.79 52.47 380.09 72.27 382.27 39.01 430.78 39.01"/><polygon class="cls-8" points="197.91 37.62 195.93 75.24 141.48 75.24 139.5 37.42 197.91 37.62"/><polygon class="cls-9" points="143.26 40.59 145.24 73.66 168.51 73.08 171.84 73 193.25 72.47 193.36 72.47 193.38 72.28 193.87 65.96 194.16 62.34 195.93 39.8 143.26 40.59"/><polygon class="cls-12" points="183.46 69.5 147.02 70.69 147.82 43.56 187.81 43.56 183.46 69.5"/><path class="cls-13" d="M168.41,73.06l.1,0,3.33-.08,21.41-.53.13-.19.49-6.32a1.77,1.77,0,0,0-.53-.53l-.27-.17L193,65.2H193A16,16,0,0,0,189.21,64l-.37-2.6.24-.49c1.15-2.27,3.31-2.4,4-4.26a4.21,4.21,0,0,0,.35-1.83c0-1.16-1.75-2.4-2.08-2.83a4.16,4.16,0,0,0-1.44-1.74,5,5,0,0,0-2.61-.67c-1-.09-4,.37-3.77.77-.28-.06-.12,1.07.23,1.33a4.56,4.56,0,0,0-1.2,1.64c-.22,0-.44.45.08.7a.8.8,0,0,1,0,.4,1.94,1.94,0,0,1-.38.77c-.29-.42-.4-.1-.25.18a.22.22,0,0,0,.05.08l-.25.32c-.2.05-.23.09-.08.1a5,5,0,0,0-.47.66c-1.19,2.43-.25,5.93-.25,5.93l.46.12a13.33,13.33,0,0,0,2.38.4V63c-3-.35-5.58-.44-6.18-.14h0c-.43.16-.86.33-1.29.52a25,25,0,0,0-4.88,2.78L171,66l-.69.55c.22.37.44.72.66,1.08C171,67.64,168.42,73.06,168.41,73.06Z"/><polygon class="cls-14" points="193.36 72.47 184.84 46.73 147.62 58.01 145.24 74.45 143.26 40.59 195.93 39.8 193.36 72.47"/><polygon class="cls-14" points="157.5 40.38 161.08 70.29 159.3 70.29 145.31 40.56 157.5 40.38"/><polygon class="cls-14" points="166.51 40.38 165.04 69.1 163.26 69.1 161.08 41.58 166.51 40.38"/><polygon class="cls-8" points="136.73 37.62 135.36 75.24 97.89 75.24 96.53 37.42 136.73 37.62"/><polygon class="cls-9" points="99.12 40.59 100.48 73.66 116.49 73.08 118.78 73 132.17 72.47 132.17 72.47 132.17 72.47 132.96 39.8 99.12 40.59"/><polygon class="cls-12" points="126.78 69.5 101.71 70.69 102.25 43.56 129.78 43.56 126.78 69.5"/><polygon class="cls-14" points="132.17 72.47 127.73 46.73 102.12 58.01 100.48 74.45 99.12 40.59 132.96 39.8 132.17 72.47"/><polygon class="cls-8" points="255.73 37.42 201.68 37.42 197.91 75.24 251.58 74.05 255.73 37.42"/><polygon class="cls-9" points="201.08 73.06 235.98 72.07 249.39 71.68 249.6 71.68 249.63 71.25 249.93 66.77 251.77 39.8 203.26 39.8 201.08 73.06"/><polygon class="cls-12" points="240.09 69.1 203.66 70.29 204.45 43.16 244.45 43.16 240.09 69.1"/><path class="cls-13" d="M220.68,60.64c0,.08-.12.18-.35.25a.35.35,0,0,1,.17.33.36.36,0,0,1-.38.29l-.05,0a1.52,1.52,0,0,0-.22.64c-.06.45.06.65,0,.8s-1,.18-3.48-1h0l-.09,0a10.09,10.09,0,0,1-.72,1.33l.32.08-.46,1c1.21.46,2,.88,2.1.9s0,.07,0,.12l.09.07c.39,1.11-.12,3.87-.35,5h0c.11,1,.27,1.81.39,2.43l-13.42,0-.25-.43L203.46,68l1-2.29c.58-1.36,1-2.14,1.9-2.56a3.37,3.37,0,0,1,2.72,0h.09a9,9,0,0,1,2.07.07l.72-.93.36.1a8.72,8.72,0,0,0,.69-1.51,3.34,3.34,0,0,0,.16-.8,1.88,1.88,0,0,1-.12.18,2.06,2.06,0,0,1-1.26.65c.69-.48.89-.71.75-1s-.37-.15-.75-.3a4.21,4.21,0,0,1-2.14-2,3.21,3.21,0,0,1,0-1.24c-.18.06.58-5.57,5-6.2a6.18,6.18,0,0,1,1.11-.09h0a4.32,4.32,0,0,1,1,.13l.19,0a3,3,0,0,1,1.17.67l.1.1h0a2.08,2.08,0,0,1,.68,1.47,1.62,1.62,0,0,1,0,.3c.18-.27.42-.55.64-.51a.33.33,0,0,1,.17.12,2.74,2.74,0,0,1,.28,1.41c0,.76-1.63,2-1.65,1.32,0-.14-.19.27-.4,0,0,0-.14-.77-.19-.79s1.26-1.54,1.1-1.34a1.4,1.4,0,0,1-.37.7l0,.09c.2.68.39,1.37.59,2.06h.08c0,.12-.05.25-.08.37H219l-.1.56c.09.15.19.31.31.48a1.7,1.7,0,0,1,.42.1s-.1.07-.27.12c.11.14.23.29.36.43a7.2,7.2,0,0,0,1.24,1.1l-.84.88.39.72h0C220.67,60.57,220.68,60.62,220.68,60.64Z"/><polygon class="cls-14" points="251.77 39.8 210.78 53.26 201.08 73.06 203.26 39.8 251.77 39.8"/><polygon class="cls-12" points="289.17 43.56 288.87 69.28 308.01 69.1 310.39 43.56 289.17 43.56"/><polygon class="cls-12" points="262.99 43.56 266.23 69.5 284.44 69.33 283.91 43.56 262.99 43.56"/><path class="cls-13" d="M288.21,126.73h18.41l1.49-20.2,2.28-30.88L288.8,75l-.36,31.56Z"/><path class="cls-13" d="M264.4,74.21l1.49,32.32.93,20.2,18.8,0-.42-20.16-.65-31.69Z"/><polygon class="cls-14" points="312.96 40.79 288.8 40.79 305.83 58.01 306.62 126.73 312.96 40.79"/><polygon class="cls-14" points="283.06 42.37 275.54 42.37 282.07 100.39 284.05 100.39 283.06 42.37"/><polygon class="cls-14" points="269.2 42.37 266.23 42.37 276.72 100.39 277.12 100.39 269.2 42.37"/><polygon class="cls-15" points="288.44 106.53 288.21 126.73 306.62 126.73 308.11 106.53 288.44 106.53"/><polygon class="cls-15" points="265.89 106.53 266.82 126.73 285.62 126.69 285.2 106.53 265.89 106.53"/><polygon class="cls-8" points="92.37 130.09 43.66 130.09 39.57 37.56 95.58 37.56 92.37 130.09"/><polygon class="cls-9" points="68.61 127.72 87.03 127.72 90.79 76.64 93.36 41.78 69.6 41.78 69.57 44.55 69.27 70.28 69.2 75.96 68.61 127.72"/><polygon class="cls-9" points="43.26 41.78 43.39 44.55 44.8 75.2 47.22 127.72 66.02 127.68 64.95 75.83 64.84 70.32 64.31 44.55 64.25 41.78 43.26 41.78"/><polygon class="cls-12" points="69.57 44.55 69.27 70.28 88.41 70.09 90.79 44.55 69.57 44.55"/><polygon class="cls-12" points="43.39 44.55 46.63 70.49 64.84 70.32 64.31 44.55 43.39 44.55"/><path class="cls-13" d="M68.61,127.72H87l1.49-20.2,2.28-30.88L69.21,76l-.37,31.56Z"/><path class="cls-13" d="M44.8,75.2l1.49,32.32.93,20.2,18.8,0-.42-20.16L65,75.83Z"/><polygon class="cls-14" points="93.36 41.78 69.2 41.78 86.23 59.01 87.03 127.72 93.36 41.78"/><polygon class="cls-14" points="63.46 43.36 55.94 43.36 62.47 101.38 64.45 101.38 63.46 43.36"/><polygon class="cls-14" points="49.6 43.36 46.63 43.36 57.12 101.38 57.52 101.38 49.6 43.36"/><polygon class="cls-15" points="68.84 107.52 68.61 127.72 87.03 127.72 88.51 107.52 68.84 107.52"/><polygon class="cls-15" points="46.29 107.52 47.22 127.72 66.02 127.68 65.6 107.52 46.29 107.52"/></g></g></svg>