<svg xmlns="http://www.w3.org/2000/svg" viewBox="0 0 283 97"><defs><style>.cls-1{isolation:isolate;}.cls-2{fill:#c82e2e;}.cls-3{fill:#3e2219;}.cls-4{fill:#ec4c4c;}.cls-5{fill:#bdd3d9;}.cls-6{fill:#8baab0;}.cls-7{fill:#ccc;}.cls-8{fill:#b06e59;}.cls-9{fill:#ffd09a;opacity:0.37;}.cls-10,.cls-9{mix-blend-mode:hard-light;}.cls-10{fill:#dbfffc;opacity:0.23;}.cls-11{fill:#a55432;}.cls-12{fill:#ff7455;}.cls-13{fill:#3a2e2c;}</style></defs><g class="cls-1"><g id="Layer_2" data-name="Layer 2"><path class="cls-2" d="M219.66,42.2c-31.75-.05-29.8,36.48-29.8,36.48s-88.12-3.74-94.6-11.47S82.68,39.65,59.17,40.49,31.33,60.73,27.44,61.18C24.53,61.52,12.9,60,2.75,59.42c0,4.87,1.47,19.83,1.47,19.83s15.31,2.46,31.58,4.16A25.94,25.94,0,1,1,81.59,85.2c33.47.31,83.75.29,117,0A25.94,25.94,0,1,1,244,84.07c15.07-.37,33.18-.64,33.18-.64s.33-1.72.65-4.37l-26.67.07S255.12,42.26,219.66,42.2Z"/><path class="cls-3" d="M221,46.23a25.91,25.91,0,0,0-22.45,38.92c13.72-.15,24.52-.34,30-.59,3.7-.17,9.34-.34,15.49-.49a25.93,25.93,0,0,0-23-37.84Z"/><path class="cls-3" d="M59.17,46.23A25.91,25.91,0,0,0,35.8,83.41c4.73.49,9.39.91,13.53,1.15,5,.28,16.81.5,32.26.64a25.93,25.93,0,0,0-22.42-39Z"/><path class="cls-4" d="M278,62.06c-1.21-8-7.11-12.25-9.19-15.45A16.42,16.42,0,0,0,265.55,43c-15.42-12.69-59.68-11-59.68-11S179.2,12.83,161.35,8.36c-16.89-4.24-32.24-6.5-49.46-5.69-15.13.72-21.36.55-47.43,4.59C30.82,12.47,28.09,15,28.09,15s-3.75,5.36-8.37,12.43c-7.4,11.31-17,27-17,32,10.15.62,21.78,2.1,24.69,1.76,3.89-.45,8.21-19.84,31.73-20.69s29.61,19,36.09,26.72,94.6,11.47,94.6,11.47-2-36.54,29.8-36.48c35.46.06,31.53,36.93,31.53,36.93l26.67-.07A67.09,67.09,0,0,0,278,62.06Z"/><path class="cls-5" d="M268.45,50.89c-3.85-2.83-11.21-4.08-18.55-4.66-4.72-.37-2.91,3.28-1,6,1.06,1.48,1.44,2.66,4.9,2.79,4.61.16,18.42.82,18.42.82S269.7,51.8,268.45,50.89Z"/><path class="cls-6" d="M252.56,54c.23.32.43.63.63.91-2.91-.23-3.31-1.35-4.3-2.75-1.9-2.67-3.71-6.32,1-6,7.21.57,14.42,1.78,18.34,4.5-4-1.47-9.34-2.24-14.67-2.66C248.86,47.7,250.66,51.35,252.56,54Z"/><path class="cls-2" d="M189.93,34l.5,16.87c0,9.46-.74,13.2-3,17-.82,1.41-3,5.15-10.59,4.56-12.37-1-41.09-3.4-45.88-4.09-5.7-.81-5.76-2.21-6-7.42,0-.67,0-1.39-.09-2.17-.38-6.86-.23-25.34-.23-25.52l-1.44,0c0,.19,0,19.25.42,26.15,0,.78.07,1.49.1,2.15.21,5.34.77,6.79,7.12,7.7,4.8.69,33.54,3.1,45.91,4.09.56,0,1.1.07,1.61.07,6.74,0,8.93-3.73,9.69-5,2.29-3.9,3.53-7.84,3.53-17.46L191.22,34Z"/><path class="cls-7" d="M141.25,38.48H130.57a1.91,1.91,0,0,0,0,3.81h10.68a1.91,1.91,0,0,0,0-3.81Z"/><path class="cls-2" d="M27.73,40c-3.16.11-6.48,3.78-8.49,5.75S11.17,53.26,13.77,54a23.48,23.48,0,0,0,10.94,0c3.17-1,7.82-8.64,9.23-10.92C36.74,38.53,30.9,39.87,27.73,40Z"/><path class="cls-5" d="M271.9,70c-1.71,0-3,2.86,0,3.76a21.67,21.67,0,0,0,6.46.7l.12-4.46S273.61,70.05,271.9,70Z"/><path class="cls-8" d="M68.13,9.83l-.1,2L67,31.5,39.82,28.19l-2.91-.36c0-4.6,3.34-11,7.71-12.49Z"/><path class="cls-9" d="M43.52,26.8h0c0-3.59,2.61-8.61,6-9.73l18.33-4.3L67,29.67Z"/><path class="cls-8" d="M124,7.26c-.07,2.42-.14,4.9-.21,7.4-.17,6.2-.34,12.55-.51,18.55,0,.14,0,.28,0,.42a.22.22,0,0,0,0,.08l-2.12-.12h0c-10.91-.59-25.88-1.18-38.77-1.77-4.43-.2-8.62-.4-12.3-.6l-1.48-.08c.56-5.71,1.42-13.86,2-20,.06-.58.12-1.14.17-1.68C77.61,8.12,116.25,6.53,124,7.26Z"/><path class="cls-9" d="M122.12,10.17c-.21,7.32-.42,15.27-.63,22.6-5-.29-11.21-.57-17.7-.86l-9.86-.43c-4.31-.18-8.54-.37-12.4-.55l-6.79-.36c.52-5.34,1.36-13.18,1.89-18.52,5.73-1.11,37-2.43,44.86-1.92Z"/><path class="cls-8" d="M193.75,35.18,151.08,34l-25.28-.68q.36-8.75.73-17.48c.13-2.87.25-5.73.37-8.6A117.37,117.37,0,0,1,157,10.93a65.09,65.09,0,0,1,26.81,13.59A71,71,0,0,1,193.75,35.18Z"/><path class="cls-9" d="M185.17,35.18l-13.86-.38-2.59-.07-20.6-.56h-.75l-21.21-.58q.33-7.59.65-15.17c0-.57,0-1.13.07-1.69l.24-5.79a101.77,101.77,0,0,1,26.16,3.19,56.4,56.4,0,0,1,23.28,11.81A60.69,60.69,0,0,1,185.17,35.18Z"/><path class="cls-10" d="M44.62,15.34,68.13,9.83l-.1,2A70.42,70.42,0,0,0,49.4,20.48a66.18,66.18,0,0,0-9.58,7.71l-2.91-.36C36.91,23.23,40.25,16.78,44.62,15.34Z"/><path class="cls-11" d="M68.13,9.83l-.07,1.38L45.72,16.44c-4.07,1.34-7.25,7-7.66,11.53l-1.15-.14c0-4.6,3.34-11,7.71-12.49Z"/><path class="cls-10" d="M124,7.26c-.07,2.42-.14,4.9-.21,7.4a85.35,85.35,0,0,0-53.22-3.51c.06-.58.12-1.14.17-1.68C77.61,8.12,116.25,6.53,124,7.26Z"/><path class="cls-11" d="M134.33,26.75a1.8,1.8,0,0,0,2,1,.78.78,0,0,0,.18-.11l1.93,2.22c.37.06,4.64.78,6.29-.26a2,2,0,0,0,.8-.82c.34-.71,0-1.44,0-2,0-1.19-.06-2.36-.1-3.54-.33-.77-.64-1-1-1.6,0-.05.05-.08,0-.09s0,0-.09,0a1,1,0,0,0-.07-.15c0-.17-.07-.56-.13-1,.14,0,.22,0,.22,0a.6.6,0,0,0-.23-.06,8,8,0,0,0-.18-1,9.22,9.22,0,0,0-.62-1.84,2.49,2.49,0,0,0,.93-.78,3,3,0,0,0,.31-.55c.22-.51.28-1,.12-1.16s-.32-.07-.88.38c.47-1.8.2-2.17.06-2.28-.57-.41-2.15,1.29-2.7,1.9.24-1.52.16-2.4-.23-2.64q-.93-.58-4.27,3.75c-.2-.52-.49-1-.9-1.11-1.12-.3-3,2.25-3.07,5a7.6,7.6,0,0,0,1.33,4.27,6,6,0,0,0,.41.55A1.73,1.73,0,0,0,134.33,26.75Z"/><path class="cls-11" d="M82.28,31.82l41,1.39c0,.14,0,.28,0,.42l-2.13,0h0C110.14,33,95.17,32.41,82.28,31.82Z"/><path class="cls-11" d="M147.37,34.16l-21.21-.58q.33-7.59.65-15.17c0-.57,0-1.13.07-1.69a7.22,7.22,0,0,1,2.42.64,8.25,8.25,0,0,1,3.5,3.32h0a13.5,13.5,0,0,1,1.56,4h0c0,.11,0,.22.07.32a17.51,17.51,0,0,1,.32,2.35h0a22.59,22.59,0,0,1-.27,5.32l3.59-3.25,1.43-1.29,4.43,1a1.63,1.63,0,0,0,.21.81C144.9,31.33,147.44,32.71,147.37,34.16Z"/><path class="cls-9" d="M79.52,29.67l2,1.26-6.79-.36c.52-5.34,1.36-13.18,1.89-18.52,5.73-1.11,37-2.43,44.86-1.92Z"/><path class="cls-11" d="M82.28,31.82c-4.43-.2-8.62-.4-12.3-.6q1-7.45,2-14.93c3.42-1.27,5.58-.45,6.24-.16C82.27,18,84.56,24.47,82.28,31.82Z"/><path class="cls-11" d="M124,7.26c0,.49,0,1,0,1.47-7.8-.73-46.32.86-53.22,2.2,0,.54-.11,1.11-.17,1.69-.56,5.62-1.33,13-1.89,18.52H68.5c.56-5.71,1.42-13.86,2-20,.06-.58.12-1.14.17-1.68C77.61,8.12,116.25,6.53,124,7.26Z"/><path class="cls-11" d="M171.31,34.8l-2.59-.07c1.2-5.13,2.6-9,3.23-8.86S172.28,29.87,171.31,34.8Z"/><path class="cls-10" d="M193.75,35.18,151.08,34a71.19,71.19,0,0,0-12.06-11,73.66,73.66,0,0,0-12.49-7.2c.13-2.87.25-5.73.37-8.6A117.37,117.37,0,0,1,157,10.93a65.09,65.09,0,0,1,26.81,13.59A71,71,0,0,1,193.75,35.18Z"/><path class="cls-11" d="M193.75,35.18l-3.13-.09a70,70,0,0,0-9-9.46A65,65,0,0,0,154.81,12a116.72,116.72,0,0,0-28-3.67c0-.37,0-.74.05-1.11A117.37,117.37,0,0,1,157,10.93a65.09,65.09,0,0,1,26.81,13.59A71,71,0,0,1,193.75,35.18Z"/><path class="cls-12" d="M265.55,43c-6.77-2.39-18.88-7.27-35.44-9a117.7,117.7,0,0,0-29.38.74A100.78,100.78,0,0,0,167.3,13.14c-11.83-4.62-21.75-5.78-32-7a202.63,202.63,0,0,0-37.1-.74A374.12,374.12,0,0,0,29.93,16.08q-5.1,5.66-10.21,11.32C24.34,20.33,28.09,15,28.09,15s2.73-2.5,36.37-7.71c26.07-4,32.3-3.87,47.43-4.59,17.22-.81,32.57,1.45,49.46,5.69,17.85,4.47,44.52,23.71,44.52,23.71S250.13,30.34,265.55,43Z"/><polygon class="cls-13" points="187.87 33.71 189.71 38.12 194.85 35.18 188.4 29.43 187.87 33.71"/><path class="cls-4" d="M190.34,32.92c-.71,2.33-5.06,3.06-9.71,1.64s-5.12-2.93-5.93-5.23c-2.64-7.43,3.84-4.62,8.5-3.2S191.05,30.59,190.34,32.92Z"/><path class="cls-2" d="M190.34,32.92c-.71,2.33-5.06,3.06-9.71,1.64a13.85,13.85,0,0,1-3.23-1.35,18.55,18.55,0,0,0,2.09.43c4.82.73,9-.63,9.37-3a2.53,2.53,0,0,0-.34-1.65C190,30.24,190.72,31.68,190.34,32.92Z"/></g></g></svg>