<svg xmlns="http://www.w3.org/2000/svg" xmlns:xlink="http://www.w3.org/1999/xlink" viewBox="0 0 1250 750"><defs><style>.cls-1{fill:none;}.cls-2{isolation:isolate;}.cls-3{clip-path:url(#clip-path);}.cls-39,.cls-4,.cls-8,.cls-9{mix-blend-mode:multiply;}.cls-4{opacity:0.12;fill:url(#_10);}.cls-5{fill:#cfaea8;}.cls-6{fill:#a49bab;}.cls-7{fill:#9a90a4;}.cls-39,.cls-8,.cls-9{opacity:0.2;}.cls-8{fill:url(#_10-2);}.cls-9{fill:url(#_10-3);}.cls-10{fill:#7d5959;}.cls-11,.cls-12{fill:#b4b835;}.cls-12,.cls-38{opacity:0.5;}.cls-13{fill:#e2dabe;}.cls-14{fill:#a07676;}.cls-15{fill:#ba8989;}.cls-16,.cls-38{fill:#81872f;}.cls-17{fill:#bcb748;}.cls-18{fill:#754d4d;}.cls-19{fill:#97827b;}.cls-20{fill:#fdd36c;}.cls-21{fill:#d1a999;}.cls-22{fill:#6fa0a4;}.cls-23{fill:#c3aba0;}.cls-24{fill:#80bfc1;}.cls-25{fill:#7f625a;}.cls-26{fill:#ae8c81;}.cls-27{fill:#896e64;}.cls-28{fill:#bfa198;}.cls-29{fill:#91756b;}.cls-30{fill:#865f54;}.cls-31{fill:#5a3d31;}.cls-32{fill:#976c6c;}.cls-33{fill:#e5b2b2;}.cls-34{fill:#905d5d;}.cls-35{fill:#956363;}.cls-36{fill:#a98068;}.cls-37{fill:#c79e89;}.cls-39{fill:url(#_10-4);}.cls-40{fill:#7a6962;}</style><clipPath id="clip-path"><rect class="cls-1" width="1250" height="750"/></clipPath><linearGradient id="_10" x1="-75" y1="272.3" x2="1277.88" y2="272.3" gradientUnits="userSpaceOnUse"><stop offset="0" stop-color="#fff"/><stop offset="1" stop-color="#3d002c"/></linearGradient><linearGradient id="_10-2" x1="286.66" y1="216.99" x2="282.67" y2="-35.06" xlink:href="#_10"/><linearGradient id="_10-3" x1="948.94" y1="361.53" x2="945.21" y2="125.89" xlink:href="#_10"/><linearGradient id="_10-4" x1="621.97" y1="258.1" x2="621" y2="196.47" xlink:href="#_10"/></defs><g class="cls-2"><g id="Layer_1" data-name="Layer 1"><g class="cls-3"><path class="cls-4" d="M1256.25,182.89c-70.68,29.68-304.7,148.37-553,122.86C666.58,302,595.6,291.58,596,284.25c.63-11.58,179.21-9.56,179.25-13.75s-188.58,3.12-389-26.25A1799.61,1799.61,0,0,1,1.09,143v38.39C63,198.3,146.42,222.83,243.75,256.75c101.32,35.31,179.91,62.7,177.5,73.5-2.3,10.29-78.79,8.42-420.16-49.36v60.63a2010.12,2010.12,0,0,0,357.41,56c445.81,28.84,726.62-103.84,799.75-140.75,47.79-24.12,79.35-43.93,98-57.85Z"/><polygon class="cls-5" points="1061.5 283.2 979.86 283.2 980.55 245.02 976.95 245.02 975.85 185.94 971.7 184.42 971.7 165.88 964.5 162.84 964.5 168.09 943.75 168.37 943.75 144.85 940.43 144.85 938.63 140.42 937.25 141.25 937.25 145.82 933.65 145.82 933.65 129.08 927.7 127.83 927.15 98.5 925.63 98.5 925.63 127.97 921.34 128.94 921.34 145.82 916.36 145.68 916.36 141.53 914.42 140.01 914.42 145.96 908.47 145.96 909.3 166.85 889.93 166.85 889.93 161.59 881.91 163.11 881.91 181.79 875.54 181.37 875.54 223.16 868.07 223.85 868.07 217.48 870.98 217.34 870.84 211.4 850.09 210.7 850.09 216.51 855.2 216.65 854.65 227.17 848.01 227.31 848.01 309.76 841.51 309.76 841.51 305.61 830.44 305.61 830.44 280.43 825.87 280.16 825.87 247.23 824.49 245.15 824.49 280.02 816.47 279.88 816.47 256.36 815.22 254.28 815.22 279.88 808.3 279.88 808.3 284.03 804.43 284.03 804.43 262.59 803.46 260.93 803.46 284.03 797.65 284.17 797.65 265.08 796.68 263.14 796.68 284.17 789.76 284.45 790.46 309.76 778.42 309.76 778.42 335.91 770.26 335.91 770.26 337.43 768.18 337.43 768.18 333.28 756.42 332.18 756.42 352.24 718.79 351.41 718.79 344.49 713.39 344.49 713.39 342.97 709.66 342.97 709.66 344.49 703.71 344.49 706.48 424.87 1061.5 424.87 1061.5 283.2"/><path class="cls-6" d="M1256.25,221.18l-.14,0-8.25,1.88-15.75,17.62,1.5,10.13,4.13,1.12.75,20.25L1220.86,301l-108.74,4.88,11.25-126L1111.74,175c-2,.55-4.31,1.27-6.93,2.23l-.11-6.94-2.48,1.24V139.44h-1.69v32.95l-9.45,4.73v-46.9h-1.69V178l-22.61,11.3,1.54,13.54a83.82,83.82,0,0,0-9.45,14.22l.75,32.62-12.75-1.12q.57-24.75,1.13-49.5l-19.5-17.62-25.13,22.87q3.2,118.87,6.38,237.74l246.5,1.05Z"/><polygon class="cls-6" points="423.36 303.7 423.36 301.62 418.26 301.62 418.26 303.7 410.88 303.7 410.88 313.16 359.42 314.29 359.42 286.86 343.33 288.37 343.33 294.05 340.5 294.05 340.5 291.97 329.33 291.97 329.33 256.21 312.87 256.21 313.82 221.58 304.36 221.21 304.36 192.45 303.03 195.1 303.03 221.21 295.09 221.02 295.09 189.42 293.76 191.69 293.76 221.02 288.46 221.02 288.46 215.34 279 215.34 279 180.34 277.3 183.18 277.3 215.34 266.33 215.53 266.33 167.85 264.44 170.69 264.44 215.72 258.19 216.1 258.19 250.53 243.06 250.53 243.06 256.21 234.16 256.21 234.16 143.44 225.08 143.25 224.33 128.88 231.33 128.69 231.33 120.74 202.95 121.69 202.76 129.82 206.73 130.01 206.73 138.72 196.51 137.77 196.51 80.63 187.81 81.2 187.81 55.66 176.84 53.57 176.84 60.76 150.35 60.76 151.48 32.2 143.35 32.2 143.35 24.06 140.7 26.14 140.7 31.82 133.89 32.01 133.89 8.92 128.02 7.6 128.02 -32.7 125.94 -32.7 125.19 7.41 117.05 9.11 117.05 32.01 112.13 32.01 112.13 25.76 110.24 24.63 107.78 30.68 103.24 30.68 103.24 62.84 74.86 62.47 74.86 55.28 65.02 59.44 65.02 84.79 59.34 86.87 57.83 167.66 52.91 167.66 53.86 219.88 1.09 219.88 1.09 413.62 427.72 413.62 431.5 303.7 423.36 303.7"/><polygon class="cls-7" points="425.73 303.02 425.73 212.32 485.52 197.86 485.52 180.82 470.73 180.82 470.73 172.65 542.83 157.25 619.33 183.23 616.23 191.34 598.53 191.11 563.21 434.63 435.34 427.05 425.73 303.02"/><path class="cls-8" d="M390.75,29.75c-88.8-18.36-160.42-10.51-211.5-4.5C117.38,32.53,45.18,47.84,1.09,62.35V96.48c111.62,9.67,413.48-10.52,414.16.77.21,3.4-27.11,7-124,27.5-96.46,20.45-101.35,23.69-101.25,26,.68,16.53,258.82,19.47,259,15.5.14-3.18-165.67-11.12-165.5-20,.22-11.51,279,3,285-36.75C572.23,84.7,468.64,45.85,390.75,29.75Z"/><path class="cls-9" d="M1256.25,265.07c-59.36,17.31-85.08,21.23-87.25,15.93-2.38-5.8,26.16-16.16,26-27.5-.68-49.95-557.16-79.67-557.75-72-.57,7.42,518.88,42.05,518,85.75-.4,19.89-108.41,31-107.25,41.25,1,9.17,88.85,7.49,208.25,1Z"/><rect class="cls-10" x="1.09" y="463.75" width="1255.16" height="288.14"/><path class="cls-11" d="M1256.25,484.25V390.72a26.69,26.69,0,0,0-9.25-2.41c-14.54-1.18-7.44,23.53-7.33,23.92-.2-.33-9.89-16.37-21.49-19.16s-14.65,22.75-14.65,22.75-14-29.65-35.66-29.5c-32.54.23-30.85,33.61-30.77,34.95-.1-1.12-2.52-25.06-26.37-28.2-24.43-3.22-32.73,21.56-32.73,21.56s-2.93-14.36-19.63-21.56-25.79,23.15-25.79,23.15,1.46-17.54-12.22-18.74c-7.88-.69-10.07,4.57-10.52,9.16-.86-2.8-3-5.62-8-6.37-10.68-1.59-11.3,15.55-11.3,15.55s-.49-13.55-7.19-13.15c-6.48.38-3.12,12.69-2.89,13.51-.37-1.13-8.18-23.8-34.85-20.69-27,3.15-16.79,35.89-16.54,36.67-.2-.56-6.54-18.34-14.43-19.13s-9.48,12-9.48,12-1.56-12-9.06-13.55c-5-1.07-4.77,5.72-4.06,10.32a30.77,30.77,0,0,1,.81,4c0-.17-.48-1.85-.81-4-1.71-6.43-6.68-18.44-20.19-19.89-15.4-1.66-14.32,15.37-13.51,21.2-.89-4.69-3.78-16.34-10.42-16-8.3.4-13.68,25.12-13.68,25.12s.49-27.91-23.93-30.3-27.45,11.56-27.45,11.56-1.85-12-9.18-12-6.35,12-6.35,12-7.32-35.88-25.89-39.07-16.14,17.89-16.14,17.89S712.94,370.59,690,372.58c-18.4,1.6-18.78,26.89-18.21,36.85.16,1.39.28,2.73.35,4,0,0-.2-1.53-.35-4-2.12-18.59-12-46.25-20.81-51.81a30.7,30.7,0,0,0-6.3-3.34v-.19c-26.06-3.19-21.8,21.53-21.8,21.53s-5.37-11.17-20-12.36-7.44,23.53-7.33,23.92c-.2-.34-9.88-16.38-21.49-19.16s-14.65,22.75-14.65,22.75-14-29.66-35.65-29.51c-32.55.24-30.86,33.61-30.78,34.95-.1-1.12-2.52-25-26.37-28.19-24.42-3.22-32.72,21.55-32.72,21.55S430.91,375.22,414.2,368s-25.79,23.15-25.79,23.15,1.47-17.54-12.21-18.74c-7.88-.69-10.08,4.57-10.53,9.16-.85-2.81-3-5.63-8-6.37-10.68-1.59-11.29,15.55-11.29,15.55s-.49-13.56-7.19-13.16c-6.48.39-3.13,12.7-2.9,13.51-.37-1.12-8.17-23.79-34.85-20.69-27,3.16-16.78,35.9-16.54,36.67-.19-.55-6.54-18.34-14.42-19.12s-9.49,12-9.49,12-1.55-12-9.06-13.56c-5-1.06-4.77,5.72-4.06,10.33a31.51,31.51,0,0,1,.82,4,40.28,40.28,0,0,1-.82-4c-1.7-6.43-6.67-18.44-20.18-19.9-15.41-1.65-14.32,15.37-13.51,21.21-.9-4.7-3.79-16.34-10.43-16-8.3.4-13.67,25.11-13.67,25.11s.49-27.9-23.93-30.3-27.45,11.57-27.45,11.57-1.86-12-9.19-12-6.35,12-6.35,12-7.31-35.89-25.88-39.08-16.14,17.89-16.14,17.89-12.4-21.66-35.35-19.67c-18.41,1.6-18.78,26.89-18.21,36.86.16,1.39.27,2.72.34,4,0,0-.2-1.53-.34-4-2.12-18.59-12-46.25-20.82-51.82a36.06,36.06,0,0,0-5.7-3.12v160l636.46-5.15,0-.08Zm-246.41-77.61a14.19,14.19,0,0,1,.29,6.39A24,24,0,0,1,1009.84,406.64ZM366,388a24.22,24.22,0,0,1-.3-6.39A14.11,14.11,0,0,1,366,388Z"/><path class="cls-11" d="M214.21,398c.19,1,.29,1.69.31,1.86C214.49,399.73,214.36,399.06,214.21,398Z"/><path class="cls-11" d="M858.38,423.09c.19,1,.29,1.7.31,1.86C858.65,424.79,858.52,424.11,858.38,423.09Z"/><path class="cls-12" d="M27.61,384.38c.16,1.39.27,2.72.34,4C28,388.38,27.75,386.85,27.61,384.38Z"/><path class="cls-12" d="M214.21,398c.19,1,.29,1.69.31,1.86C214.49,399.73,214.36,399.06,214.21,398Z"/><path class="cls-12" d="M247.9,396.71a31.51,31.51,0,0,1,.82,4A40.28,40.28,0,0,1,247.9,396.71Z"/><path class="cls-12" d="M366,388a24.22,24.22,0,0,1-.3-6.39A14.11,14.11,0,0,1,366,388Z"/><path class="cls-12" d="M671.77,409.43c.16,1.39.28,2.73.35,4C672.12,413.43,671.92,411.9,671.77,409.43Z"/><path class="cls-12" d="M858.38,423.09c.19,1,.29,1.7.31,1.86C858.65,424.79,858.52,424.11,858.38,423.09Z"/><path class="cls-12" d="M892.07,421.76a30.77,30.77,0,0,1,.81,4C892.84,425.6,892.4,423.92,892.07,421.76Z"/><path class="cls-12" d="M1010.13,413a24,24,0,0,1-.29-6.39A14.19,14.19,0,0,1,1010.13,413Z"/><rect class="cls-13" x="1.09" y="564.26" width="1254.3" height="7.74"/><rect class="cls-14" x="1.09" y="491.13" width="1255.16" height="31.37"/><rect class="cls-15" x="844.75" y="482.6" width="411.5" height="12.71"/><ellipse class="cls-16" cx="1181.13" cy="434" rx="19.63" ry="52.75"/><path class="cls-17" d="M1195.65,481.16c2.25-9.62,1.1-23.27,1.1-38.41,0-29.13-8.79-52.75-19.63-52.75-3.76,0-7.28,2.85-10.27,7.8,3.58-10.19,8.65-16.55,14.27-16.55,10.84,0,19.63,23.62,19.63,52.75C1200.75,454.63,1202.88,472.49,1195.65,481.16Z"/><ellipse class="cls-16" cx="1141.38" cy="432.75" rx="19.63" ry="52.75"/><path class="cls-17" d="M1155.9,479.91c2.25-9.62,1.1-23.27,1.1-38.41,0-29.13-8.79-52.75-19.62-52.75-3.77,0-7.29,2.85-10.28,7.8,3.58-10.19,8.65-16.55,14.28-16.55,10.83,0,19.62,23.62,19.62,52.75C1161,453.38,1163.13,471.24,1155.9,479.91Z"/><ellipse class="cls-16" cx="1222.38" cy="434" rx="19.63" ry="52.75"/><path class="cls-17" d="M1236.9,481.16c2.25-9.62,1.1-23.27,1.1-38.41,0-29.13-8.79-52.75-19.62-52.75-3.77,0-7.29,2.85-10.28,7.8,3.58-10.19,8.65-16.55,14.28-16.55,10.83,0,19.62,23.62,19.62,52.75C1242,454.63,1244.13,472.49,1236.9,481.16Z"/><path class="cls-18" d="M889.41,483.74s-16.87,7.33-15.1,7.1,237.77-1.33,237.77-1.33l-6-11.32Z"/><polygon class="cls-19" points="1140.5 366.52 1125.31 366.43 1107.1 483.12 892.05 483.12 888.44 456.21 888.43 456.19 887.83 451.69 892.29 451.77 886.97 402.26 881.31 403.1 880.84 399.61 876.75 369.18 845.89 369.18 850.05 358.6 850.78 356.75 1136.73 356.75 1139.04 362.72 1140.5 366.52"/><path class="cls-20" d="M809.54,395.88l2.55,14.81A11.25,11.25,0,0,0,823.17,420h30.18a11.24,11.24,0,0,0,11.22-10.51l1-14.81a11.25,11.25,0,0,0-11.22-12h-33.7A11.23,11.23,0,0,0,809.54,395.88Z"/><polygon class="cls-20" points="862.54 393.6 882.08 393.6 882.08 396.71 862.54 395.16 862.54 393.6"/><polygon class="cls-21" points="939.92 479.09 932.03 402.26 984.47 402.26 976.96 480.19 939.92 479.09"/><polygon class="cls-22" points="938.27 406.85 942.3 476.89 974.75 478.17 978.79 409.78 938.27 406.85"/><polygon class="cls-23" points="938.27 439.85 978.79 439.85 978.79 443.33 938.27 442.42 938.27 439.85"/><polygon class="cls-21" points="930.92 456.21 888.44 456.21 888.43 456.19 887.74 451.69 887.83 451.69 892.29 451.77 886.97 402.26 881.31 403.1 880.84 399.61 926.71 399.6 930.92 456.21"/><polygon class="cls-22" points="922.71 402.26 924.26 452.21 892.29 452.21 886.97 402.26 922.71 402.26"/><polygon class="cls-24" points="889.24 423.54 920.27 411.59 923.66 432.86 922.71 402.26 886.97 402.26 889.24 423.54"/><polygon class="cls-24" points="939.8 432.9 938.25 406.92 978.88 409.81 977.89 425.01 939.8 432.9"/><polygon class="cls-24" points="940.69 444.44 940.32 442.46 976.81 443.33 976.4 448.55 940.69 444.44"/><polygon class="cls-25" points="876.75 369.18 878.82 384.6 1122.96 379.81 1125.4 366.52 876.75 369.18"/><polygon class="cls-21" points="991.53 398.49 1053.53 398.45 1046.59 454.43 990.87 453.55 991.53 398.49"/><polygon class="cls-22" points="1046.62 404.67 1046.6 404.81 1045.12 416.75 1040.86 451.1 994.64 450.37 994.92 427.4 995.19 404.7 995.19 404.7 1046.62 404.67"/><polygon class="cls-24" points="1046.6 404.81 1045.12 416.75 994.92 427.4 995.19 404.7 1046.59 404.7 1046.6 404.81"/><polygon class="cls-26" points="886.97 459.76 928.04 459.76 926.71 469.97 889.63 472.64 886.97 459.76"/><polygon class="cls-26" points="981.54 456.21 979.77 469.53 1037.93 468.42 1039.93 457.54 981.54 456.21"/><polygon class="cls-26" points="1055.69 398.49 1055.69 416.03 1090.77 416.03 1092.99 399.6 1055.69 398.49"/><polygon class="cls-27" points="889.41 474.19 890.96 483.74 1108.31 483.96 1110.09 474.19 979.77 474.19 978.88 480.85 940.25 480.85 938.25 474.19 889.41 474.19"/><polygon class="cls-28" points="1139.04 362.72 850.05 358.6 850.78 356.75 1136.73 356.75 1139.04 362.72"/><polygon class="cls-29" points="1078.12 420.02 1079.23 431.57 1110.97 431.57 1112.08 420.02 1078.12 420.02"/><rect class="cls-29" x="1056.58" y="434.01" width="32.41" height="12.65"/><polygon class="cls-29" points="1049.7 451.1 1050.81 467.31 1097.87 466.2 1099.87 448.44 1049.7 451.1"/><polygon class="cls-29" points="880.75 386.72 883.19 398.49 916.94 398.49 916.94 386.72 880.75 386.72"/><polygon class="cls-26" points="920.05 386.72 920.05 398.49 953.79 398.49 953.79 385.17 920.05 386.72"/><polygon class="cls-29" points="983.32 386.72 984.43 398.49 1022.17 396.71 1023.95 384.5 983.32 386.72"/><polygon class="cls-30" points="1132.25 441.25 1134.5 449.75 1202.5 449.75 1202.5 440.25 1132.25 441.25"/><polygon class="cls-30" points="1134.75 453.75 1136.5 463.75 1202.5 463 1201.75 454.75 1134.75 453.75"/><polygon class="cls-30" points="1134.75 469 1205.5 468 1204 472.75 1136.25 472.75 1134.75 469"/><polygon class="cls-30" points="1141.5 448.5 1142.03 468.9 1142.93 468.9 1144.46 449.75 1141.5 448.5"/><polygon class="cls-30" points="1187.25 448.5 1190.75 469 1192 469 1190.5 448.5 1187.25 448.5"/><polygon class="cls-30" points="1139.75 472 1137.5 487.5 1138.75 487.5 1141.5 472 1195.25 472 1198 488.25 1199 488.25 1197.75 472 1139.75 472"/><polygon class="cls-30" points="1139.75 481.25 1197.5 480 1197.5 479 1139.75 480 1139.75 481.25"/><polygon class="cls-15" points="1091.5 454.5 1095 491.25 1117.75 491.25 1122.75 457.75 1091.5 454.5"/><polygon class="cls-31" points="1091.5 454.5 1102 453.75 1102 450.5 1106.75 452.5 1115 451.75 1115.5 455.25 1118.74 457.33 1091.5 454.5"/><polygon class="cls-32" points="1095 491.25 1091.5 454.5 1107 458.75 1099.75 491.25 1095 491.25"/><polygon class="cls-33" points="1117.75 491.25 1118.75 458.75 1098.75 455.25 1122.75 457.75 1117.75 491.25"/><polygon class="cls-18" points="1095.1 490.27 1082.75 495.25 1093.25 497.25 1097 496.25 1117.25 497.25 1117.25 491.25 1095.1 490.27"/><polygon class="cls-18" points="1134.75 488.25 1127 495.25 1205.5 493.75 1199 488.25 1199 490.75 1134.75 490.75 1138.75 488.25 1134.75 488.25"/><rect class="cls-34" x="1.09" y="570.38" width="1255.16" height="60.12"/><rect class="cls-35" x="1.09" y="661.38" width="532.91" height="22.87"/><rect class="cls-36" x="1.09" y="691.13" width="1255.16" height="60.12"/><rect class="cls-37" x="1.09" y="682" width="1255.16" height="10.75"/><path class="cls-16" d="M846.58,398.14c-14.1-8.35-21.81,21.53-21.81,21.53s-5.37-11.16-20-12.36-7.44,23.53-7.33,23.92c-.2-.33-9.89-16.37-21.49-19.16s-14.65,22.75-14.65,22.75-14-29.65-35.66-29.5c-32.54.23-30.85,33.61-30.77,34.95-.1-1.12-2.52-25.06-26.37-28.2-24.43-3.22-32.73,21.56-32.73,21.56s-2.93-14.36-19.63-21.56-25.79,23.15-25.79,23.15,1.46-17.54-12.22-18.74c-7.88-.69-10.07,4.57-10.52,9.16-.86-2.8-3-5.62-8-6.37-10.68-1.59-11.3,15.55-11.3,15.55s-.49-13.55-7.19-13.15c-6.48.38-3.12,12.69-2.89,13.51-.37-1.13-8.18-23.8-34.85-20.69-27,3.15-16.79,35.89-16.54,36.67-.2-.56-6.54-18.34-14.43-19.13s-9.48,12-9.48,12-1.56-12-9.06-13.55c-5-1.07-4.77,5.72-4.06,10.32a30.77,30.77,0,0,1,.81,4c0-.17-.48-1.85-.81-4-1.71-6.43-6.68-18.44-20.19-19.89-15.4-1.66-14.32,15.37-13.51,21.2-.89-4.69-3.78-16.34-10.42-16-8.3.4-13.68,25.12-13.68,25.12s.49-27.91-23.93-30.3-27.45,11.56-27.45,11.56-1.85-12-9.18-12-6.35,12-6.35,12-7.32-35.88-25.89-39.07-16.14,17.89-16.14,17.89-12.39-21.66-35.35-19.67c-18.4,1.6-18.78,26.89-18.21,36.85.16,1.39.28,2.73.35,4,0,0-.2-1.53-.35-4-2.12-18.59-12-46.25-20.81-51.81a30.7,30.7,0,0,0-6.3-3.34v-.19c-26.06-3.19-21.8,21.53-21.8,21.53s-5.37-11.17-20-12.36-7.44,23.53-7.33,23.92c-.2-.34-9.88-16.38-21.49-19.16s-14.65,22.75-14.65,22.75-14-29.66-35.65-29.51c-32.55.24-30.86,33.61-30.78,34.95-.1-1.12-2.52-25-26.37-28.19a27.46,27.46,0,0,0-23.22,7.22V504.91l194.21-1.58-.05-.08H846.5S872.5,413.5,846.58,398.14ZM567.88,432a24,24,0,0,1-.29-6.39A14.19,14.19,0,0,1,567.88,432Z"/><path class="cls-16" d="M416.13,442.09c.19,1,.29,1.7.31,1.86C416.4,443.79,416.27,443.11,416.13,442.09Z"/><path class="cls-38" d="M229,436.18c.16,1.39.28,2.73.35,4C229.37,440.18,229.17,438.65,229,436.18Z"/><path class="cls-38" d="M415.63,449.84c.19,1,.29,1.7.31,1.86C415.9,451.54,415.77,450.86,415.63,449.84Z"/><path class="cls-38" d="M449.32,448.51a30.77,30.77,0,0,1,.81,4C450.09,452.35,449.65,450.67,449.32,448.51Z"/><path class="cls-38" d="M567.38,439.78a24,24,0,0,1-.29-6.39A14.19,14.19,0,0,1,567.38,439.78Z"/><path class="cls-39" d="M873.25,240.5c.24-4.6-116-15-209.25-20.5-143-8.51-294-9.37-294.25-4s148.18,17,268.75,22.5C743.17,243.24,873,245.35,873.25,240.5Z"/><polygon class="cls-40" points="215.25 511.75 220.25 285.75 223.25 285.75 225.25 512.75 215.25 511.75"/><path class="cls-40" d="M220.25,286.25c-4.17-1.5-8-8.5-13-8.25l-2.75-3,35,1.25-1,2c-6.5-1-10.83,6.67-15.75,8Z"/><polygon class="cls-40" points="477.75 506.25 482.75 280.25 485.75 280.25 487.75 507.25 477.75 506.25"/><path class="cls-40" d="M482.75,280.75c-4.17-1.5-8-8.5-13-8.25l-2.75-3,35,1.25-1,2c-6.5-1-10.83,6.67-15.75,8Z"/><polygon class="cls-40" points="721.75 511.5 726.75 285.5 729.75 285.5 731.75 512.5 721.75 511.5"/><path class="cls-40" d="M726.75,286c-4.17-1.5-8-8.5-13-8.25l-2.75-3L746,276l-1,2c-6.5-1-10.83,6.67-15.75,8Z"/><polygon class="cls-40" points="977.5 511.75 982.5 285.75 985.5 285.75 987.5 512.75 977.5 511.75"/><path class="cls-40" d="M982.5,286.25c-4.17-1.5-8-8.5-13-8.25l-2.75-3,35,1.25-1,2c-6.5-1-10.83,6.67-15.75,8Z"/><polygon class="cls-40" points="1227 511.75 1232 285.75 1235 285.75 1237 512.75 1227 511.75"/><path class="cls-40" d="M1232,286.25c-4.17-1.5-8-8.5-13-8.25l-2.75-3,35,1.25-1,2c-6.5-1-10.83,6.67-15.75,8Z"/><path class="cls-40" d="M1256.25,304.81l-22.5-2.34h0c-5.1,1.32-10.21,2.59-15.35,3.76s-10.29,2.28-15.46,3.27c-2.58.53-5.17,1-7.76,1.47-1.3.24-2.6.45-3.9.68s-2.59.45-3.89.66l-3.9.62-2,.3-2,.29-3.91.57-3.91.52c-10.45,1.37-20.94,2.44-31.45,3.15l-3.94.25c-1.32.08-2.63.17-3.95.22l-7.89.35-2,.08-2,0-4,.08c-2.63,0-5.26.15-7.9.12h-7.9c-2.63,0-5.27-.11-7.9-.16-1.32,0-2.63,0-4-.1l-7.89-.34-2-.09-2-.12-7.88-.5-7.88-.66-2-.16-2-.2-3.93-.4-3.93-.41-3.92-.48q-15.69-1.89-31.24-4.73t-30.89-6.67h-.06a622.36,622.36,0,0,1-63.41,9.79,620.73,620.73,0,0,1-64.09,3.2c-10.7,0-21.39-.32-32.08-.9s-21.35-1.42-32-2.55a625.27,625.27,0,0,1-63.38-10h-.06q-7.35,2.88-14.82,5.43l-3.75,1.24-1.87.61-1.89.59-3.77,1.16-3.79,1.1a314.13,314.13,0,0,1-30.73,7.19c-10.35,1.89-20.8,3.28-31.28,4.15s-21,1.27-31.55,1.08a321.17,321.17,0,0,1-62.64-7.17c-10.29-2.19-20.48-4.91-30.51-8.09q-7.53-2.38-14.93-5.13t-14.66-5.85h0a460.59,460.59,0,0,1-64.13,13.92c-10.83,1.55-21.73,2.66-32.64,3.42l-4.1.27-2.05.13c-.68.05-1.36.06-2.05.09l-8.2.35c-.68,0-1.37.05-2.05.06l-2,0-4.11.07c-1.36,0-2.73.06-4.1.06l-4.1,0a446.24,446.24,0,0,1-65.41-5.1,457.74,457.74,0,0,1-64-14.59h0q-29.1,3.86-58.37,6.11-14.62,1.14-29.28,1.88t-29.32,1.05q-29.34.69-58.69-.26-23.26-.72-46.49-2.48v0q23.22,1.77,46.49,2.55,29.34,1,58.69.3,14.67-.33,29.33-1t29.29-1.86q29.25-2.24,58.35-6.07a451.92,451.92,0,0,0,64,14.58,445.23,445.23,0,0,0,65.44,5.06l4.1,0c1.37,0,2.74,0,4.11-.07l4.1-.07,2,0c.69,0,1.37,0,2.06-.06l8.2-.35c.68,0,1.37,0,2.05-.09l2.05-.14,4.1-.27c10.92-.77,21.81-1.88,32.65-3.44a457.71,457.71,0,0,0,64.12-14q14.52,6.18,29.59,11t30.51,8.11A321.31,321.31,0,0,0,605,326.07c10.53.2,21.06-.2,31.56-1.05s20.94-2.25,31.3-4.13,20.63-4.27,30.75-7.18l3.8-1.09,3.77-1.17,1.89-.58,1.87-.61,3.76-1.24q7.45-2.55,14.8-5.41a621.9,621.9,0,0,0,63.37,10q16,1.69,32,2.56c10.69.57,21.39.9,32.09.9a621.31,621.31,0,0,0,64.12-3.2,626,626,0,0,0,63.41-9.78q15.33,3.8,30.87,6.65t31.26,4.72l3.93.48,3.93.4,3.93.4,2,.2,2,.16,7.87.65,7.89.49,2,.13,2,.08,4,.17,4,.17c1.31.05,2.63.06,4,.1,2.63.05,5.26.12,7.9.15h7.9c2.64,0,5.27-.07,7.91-.12l3.95-.09,2,0,2-.09,7.89-.35c1.32-.05,2.63-.15,3.95-.23l3.94-.25c10.52-.71,21-1.79,31.45-3.17,1.31-.18,2.61-.34,3.92-.53l3.91-.57,2-.29,2-.31,3.9-.62c1.3-.21,2.6-.44,3.89-.66s2.6-.44,3.9-.68c2.59-.49,5.18-.95,7.76-1.48,5.17-1,10.32-2.13,15.46-3.29s10.25-2.45,15.34-3.78l22.5,2.3Z"/><path class="cls-40" d="M1254.38,315.38l-21-1.53h0a240,240,0,0,1-59.8,26.52,237.1,237.1,0,0,1-64.72,9.33h-4.1c-1.37,0-2.73-.06-4.1-.09l-2.05-.06-2-.1c-1.36-.07-2.73-.12-4.09-.22-5.45-.35-10.89-.9-16.31-1.61s-10.81-1.66-16.16-2.75l-2-.41c-.67-.14-1.34-.28-2-.44l-4-.92-4-1c-1.32-.34-2.64-.71-4-1.07a240.2,240.2,0,0,1-60-25.87l-.1-.06-.12,0q-7.69,2.64-15.5,5c-5.19,1.56-10.44,3-15.69,4.3-10.53,2.6-21.16,4.82-31.88,6.49s-21.5,2.93-32.32,3.69c-5.42.34-10.83.64-16.26.75-2.71.09-5.42.1-8.13.12h-4.07l-2,0-2,0a373.94,373.94,0,0,1-64.62-6.94q-8-1.57-15.9-3.47t-15.73-4.16q-15.64-4.49-30.87-10.27l-.16-.06-.15.09q-6.87,4.14-14,7.82t-14.52,6.85c-4.91,2.13-9.9,4.09-14.93,5.89s-10.15,3.42-15.3,4.88l-1.93.55c-.65.18-1.29.36-1.94.52l-3.89,1c-1.3.32-2.6.62-3.9.92-.66.15-1.3.32-2,.45l-2,.41-2,.42-1,.2-1,.19-3.94.73c-1.32.24-2.64.43-4,.65l-2,.32-2,.27-4,.54-4,.44c-.67.07-1.33.15-2,.21l-2,.17c-1.33.11-2.66.23-4,.33l-4,.22c-.67,0-1.34.09-2,.11l-2,.06-4,.12h-6c-.67,0-1.33,0-2,0l-4-.11c-.67,0-1.33-.06-2-.09l-2-.11-2-.11c-.67,0-1.33-.07-2-.14-5.34-.4-10.66-1-16-1.75a225.38,225.38,0,0,1-31.34-6.85,237.16,237.16,0,0,1-30.09-11.15l-.92-.41-.9-.43L507.38,322l-.9-.43-.9-.45-3.59-1.8c-1.19-.61-2.36-1.26-3.55-1.88-4.71-2.53-9.35-5.21-13.88-8.06l-.14-.08-.16.05q-7.92,2.88-15.94,5.42l-4,1.23-2,.61-2,.57-4,1.16-4.07,1.08-2,.54c-.67.18-1.36.33-2,.5l-4.09,1-1,.25-1,.23-2.05.46c-1.37.3-2.74.62-4.11.91l-4.12.84c-1.38.27-2.75.57-4.13.8l-4.15.75c-.69.13-1.38.26-2.07.37l-2.08.33c-11.07,1.8-22.24,3.07-33.44,3.8l-4.2.27c-.7.05-1.4.07-2.1.1l-2.1.08-4.21.17-1.05,0h-1.05l-2.11,0-2.1,0-1.05,0h-5.26c-.71,0-1.41,0-2.11,0l-2.1,0c-1.41,0-2.81,0-4.21-.09a351,351,0,0,1-66.71-8.48Q269,318.59,253,313.35q-8-2.61-15.88-5.6t-15.61-6.33l-.08,0-.08,0a388.57,388.57,0,0,1-54.83,14.49c-4.65.89-9.32,1.65-14,2.37l-7,1-7,.84q-14.11,1.56-28.3,2.14a387.45,387.45,0,0,1-56.69-2q-14.12-1.56-28.09-4.14c-8.14-1.5-16.22-3.31-24.24-5.32h0c8,2,16.09,3.87,24.23,5.38q13.95,2.61,28.08,4.21a387.92,387.92,0,0,0,56.72,2.17q14.19-.54,28.32-2.08l7.06-.83,7-1c4.68-.72,9.36-1.46,14-2.35a390.33,390.33,0,0,0,54.83-14.4q7.69,3.33,15.53,6.33t15.9,5.62q16,5.25,32.49,9a351.29,351.29,0,0,0,66.81,8.58c11.24.37,22.49.13,33.71-.58s22.41-2,33.51-3.8l2.08-.33c.7-.11,1.39-.25,2.08-.37l4.15-.75c1.38-.23,2.76-.53,4.14-.8l4.13-.84c1.37-.29,2.74-.61,4.12-.91l2.05-.46,1-.23,1-.25,4.09-1c.69-.17,1.37-.32,2-.5l2-.54,4.08-1.08,4.05-1.16,2-.57,2-.62,4-1.22q8-2.52,15.81-5.37,6.76,4.25,13.79,8c1.18.63,2.36,1.28,3.56,1.88l3.59,1.81.9.46.91.43,1.82.86,1.82.86.91.43.92.4a235.62,235.62,0,0,0,30.18,11.2,225.12,225.12,0,0,0,31.44,6.89c5.32.74,10.65,1.36,16,1.76.66.07,1.33.11,2,.14l4,.22c.68,0,1.34.09,2,.1l4,.1c.67,0,1.34,0,2,0h6l4-.12,2-.06c.67,0,1.34-.07,2-.1l4-.23c1.34-.1,2.68-.22,4-.33l2-.17c.67-.05,1.34-.14,2-.21l4-.44,4-.54,2-.27,2-.32c1.33-.22,2.65-.42,4-.66l3.95-.73,1-.19,1-.21,2-.41,2-.42c.66-.13,1.31-.3,2-.45,1.31-.31,2.62-.6,3.92-.92l3.9-1c.65-.16,1.3-.34,1.94-.53l1.94-.54q7.74-2.21,15.34-4.9t15-5.92q7.38-3.19,14.55-6.88t13.92-7.76q15.17,5.75,30.77,10.22,7.83,2.24,15.76,4.15t15.92,3.47A374.54,374.54,0,0,0,855.86,336q1,0,2,0l2,0H864c2.72,0,5.43,0,8.15-.12,5.43-.11,10.86-.42,16.28-.76q16.26-1.14,32.37-3.73c10.74-1.69,21.38-3.92,31.93-6.54,5.26-1.35,10.5-2.76,15.71-4.33s10.3-3.19,15.39-4.95a241.14,241.14,0,0,0,60.08,25.79c1.33.35,2.64.72,4,1.06l4,1,4,.92,2,.43,2,.42c5.37,1.08,10.77,2,16.19,2.72s10.88,1.26,16.35,1.6c1.36.09,2.73.14,4.1.21l2,.1,2.05,0c1.37,0,2.74.08,4.1.09h4.11a237.08,237.08,0,0,0,64.77-9.5,240.19,240.19,0,0,0,59.77-26.65Z"/></g></g></g></svg>