<svg xmlns="http://www.w3.org/2000/svg" viewBox="0 0 144 563"><defs><style>.cls-1{isolation:isolate;}.cls-2{fill:#563f37;}.cls-3{fill:#a98068;mix-blend-mode:multiply;opacity:0.52;}.cls-4{fill:#ba8989;}.cls-5{fill:#b0b79d;}.cls-6{fill:#976c6c;}.cls-7{fill:#e5b2b2;}.cls-8{fill:#8a8fa4;}</style></defs><g class="cls-1"><g id="Layer_14" data-name="Layer 14"><polygon class="cls-2" points="91.38 506.6 102.08 23.21 108.49 23.21 112.77 508.74 91.38 506.6"/><path class="cls-2" d="M102.08,24.28C93.16,21.07,85,6.1,74.27,6.63L68.39.22l74.86,2.67-2.14,4.28C127.21,5,117.94,21.43,107.42,24.28Z"/><path class="cls-3" d="M92,507,67.25,563s39.25.75,39.75,0,5.75-54.25,5.75-54.25Z"/><polygon class="cls-3" points="46.96 510.84 0.25 532.25 36.16 539.25 43.36 537.33 77 539.25 89.48 512.73 46.96 510.84"/><polygon class="cls-4" points="40.05 442.18 46.77 512.73 90.44 512.73 100.04 448.42 40.05 442.18"/><polygon class="cls-5" points="40.05 442.18 60.75 432.75 63.25 429 69.33 438.34 85.16 436.9 86.12 443.62 92.35 447.62 40.05 442.18"/><polygon class="cls-6" points="46.77 512.73 40.05 442.18 69.81 450.34 55.89 512.73 46.77 512.73"/><polygon class="cls-7" points="90.44 512.73 92.36 450.34 53.97 443.63 100.04 448.42 90.44 512.73"/><polyline class="cls-8" points="78.93 446.22 53.13 443.54 51.75 440 61.75 436"/></g></g></svg>