<svg xmlns="http://www.w3.org/2000/svg" viewBox="0 0 212 74"><defs><style>.cls-1{isolation:isolate;}.cls-2{fill:#c82e2e;}.cls-3{fill:#3e2219;}.cls-4{fill:#ec4c4c;}.cls-5{fill:#bdd3d9;}.cls-6{fill:#8baab0;}.cls-7{fill:#ccc;}.cls-8{fill:#b06e59;}.cls-9{fill:#ffd09a;opacity:0.37;}.cls-10,.cls-9{mix-blend-mode:hard-light;}.cls-10{fill:#dbfffc;opacity:0.23;}.cls-11{fill:#a55432;}.cls-12{fill:#ff7455;}.cls-13{fill:#3a2e2c;}</style></defs><g class="cls-1"><g id="Layer_4_copy" data-name="Layer 4 copy"><path class="cls-2" d="M45.53,31.62c24.3,0,22.8,27.92,22.8,27.92s67.44-2.86,72.39-8.78,9.63-21.09,27.63-20.44,21.3,15.48,24.27,15.83c2.23.26,11.13-.88,18.9-1.35,0,3.72-1.13,15.18-1.13,15.18s-11.71,1.88-24.17,3.18a19.85,19.85,0,1,0-35,1.37c-25.61.24-64.09.22-89.5,0a19.85,19.85,0,1,0-34.81-.83c-11.54-.28-25.4-.48-25.4-.48S1.24,61.86,1,59.83l20.41.05S18.39,31.67,45.53,31.62Z"/><path class="cls-3" d="M44.51,34.71A19.83,19.83,0,0,1,61.69,64.49c-10.5-.11-18.76-.26-23-.45-2.83-.13-7.15-.26-11.85-.38A19.83,19.83,0,0,1,44.51,34.71Z"/><path class="cls-3" d="M168.35,34.71a19.82,19.82,0,0,1,17.87,28.45c-3.61.38-7.18.69-10.35.88-3.78.22-12.86.38-24.68.49a19.83,19.83,0,0,1,17.16-29.82Z"/><path class="cls-4" d="M1,59.83l20.41.05s-3-28.21,24.12-28.26c24.31,0,22.81,27.92,22.81,27.92s67.44-2.86,72.39-8.78,9.63-21.09,27.62-20.45,21.31,15.49,24.28,15.84c2.23.26,11.13-.88,18.9-1.35,0-3.84-7.32-15.85-13-24.51-3.53-5.4-6.41-9.5-6.41-9.5S190,8.87,164.3,4.89c-20-3.1-24.72-3-36.3-3.51C114.82.75,103.07,2.49,90.15,5.72,76.49,9.14,56.08,23.87,56.08,23.87s-33.87-1.32-45.67,8.39A12.17,12.17,0,0,0,7.9,35c-1.59,2.45-6.11,5.68-7,11.82A51.67,51.67,0,0,0,1,59.83Z"/><path class="cls-5" d="M8.19,38.27c3-2.16,8.58-3.12,14.2-3.56,3.6-.29,2.22,2.51.77,4.55-.81,1.14-1.1,2-3.75,2.13-3.52.13-14.1.63-14.1.63A22.11,22.11,0,0,1,8.19,38.27Z"/><path class="cls-6" d="M20.35,40.66c-.17.25-.32.49-.48.7,2.22-.17,2.53-1,3.29-2.1,1.45-2,2.84-4.84-.77-4.55-5.52.43-11,1.36-14,3.44a44.92,44.92,0,0,1,11.23-2C23.18,35.83,21.8,38.62,20.35,40.66Z"/><path class="cls-2" d="M68.28,25.32l-.39,12.91c0,7.24.57,10.1,2.31,13,.63,1.08,2.32,3.94,8.11,3.49,9.46-.76,31.44-2.6,35.1-3.12,4.37-.63,4.41-1.7,4.57-5.69,0-.5,0-1.05.07-1.65.29-5.26.18-19.39.18-19.53l1.09,0c0,.15,0,14.74-.31,20,0,.59-.06,1.14-.08,1.64-.16,4.09-.59,5.2-5.45,5.89-3.67.53-25.66,2.37-35.13,3.13-.43,0-.84,0-1.23,0-5.16,0-6.84-2.85-7.42-3.83-1.75-3-2.7-6-2.7-13.37l.29-13Z"/><path class="cls-7" d="M105.53,28.78h8.17a1.46,1.46,0,1,1,0,2.91h-8.17a1.46,1.46,0,1,1,0-2.91Z"/><path class="cls-2" d="M192.4,29.93c2.42.08,5,2.89,6.5,4.39s6.17,5.77,4.19,6.32a17.82,17.82,0,0,1-8.38,0c-2.42-.77-6-6.6-7.06-8.35C185.51,28.82,190,29.84,192.4,29.93Z"/><path class="cls-5" d="M5.55,52.9c1.31,0,2.3,2.18,0,2.87a16.22,16.22,0,0,1-4.94.54L.52,52.9S4.24,52.94,5.55,52.9Z"/><path class="cls-8" d="M161.49,6.85l.08,1.55.76,15,20.82-2.54,2.23-.27c0-3.53-2.56-8.46-5.9-9.56Z"/><path class="cls-9" d="M180.32,19.84h0c0-2.75-2-6.59-4.6-7.45l-14-3.29L162.35,22Z"/><path class="cls-8" d="M118.76,4.89c.06,1.85.11,3.74.16,5.66.13,4.74.26,9.6.39,14.2v.37L121,25h0c8.35-.45,19.81-.9,29.67-1.35,3.39-.15,6.59-.31,9.41-.46l1.14-.06c-.43-4.37-1.1-10.61-1.56-15.3-.05-.44-.09-.87-.13-1.29C154.23,5.54,124.67,4.32,118.76,4.89Z"/><path class="cls-9" d="M120.17,7.11c.16,5.61.32,11.69.48,17.29,3.82-.22,8.58-.43,13.55-.65l7.54-.33,9.49-.42,5.2-.28c-.4-4.08-1-10.08-1.44-14.17-4.39-.85-28.35-1.86-34.34-1.47Z"/><path class="cls-8" d="M65.36,26.25,98,25.37l19.35-.53-.57-13.37q-.14-3.3-.28-6.58a89.48,89.48,0,0,0-23,2.81A49.54,49.54,0,0,0,73,18.1,53.79,53.79,0,0,0,65.36,26.25Z"/><path class="cls-9" d="M71.92,26.25,82.53,26l2-.05,15.77-.43h.56L117.08,25q-.26-5.82-.5-11.62c0-.43,0-.86,0-1.29-.06-1.47-.13-2.95-.19-4.42a77.64,77.64,0,0,0-20,2.44,43.21,43.21,0,0,0-17.82,9A46.7,46.7,0,0,0,71.92,26.25Z"/><path class="cls-10" d="M179.48,11.07l-18-4.22.08,1.55A54.25,54.25,0,0,1,175.82,15a51.4,51.4,0,0,1,7.33,5.9l2.23-.27C185.38,17.1,182.82,12.17,179.48,11.07Z"/><path class="cls-11" d="M161.49,6.85l0,1.06,17.09,4c3.12,1,5.55,5.38,5.87,8.82l.88-.1c0-3.53-2.56-8.46-5.9-9.56Z"/><path class="cls-10" d="M118.76,4.89c.06,1.85.11,3.74.16,5.66a65.32,65.32,0,0,1,40.73-2.69c-.05-.44-.09-.87-.13-1.29C154.23,5.54,124.67,4.32,118.76,4.89Z"/><path class="cls-11" d="M110.82,19.8a1.36,1.36,0,0,1-1.56.78.37.37,0,0,1-.14-.08l-1.47,1.69c-.29,0-3.56.61-4.82-.19a1.52,1.52,0,0,1-.61-.63c-.27-.54,0-1.11,0-1.52,0-.9,0-1.81.07-2.7a13.31,13.31,0,0,1,.74-1.23s0-.06,0-.07h.07a.61.61,0,0,1,.05-.12c0-.12,0-.42.1-.74h-.17a.48.48,0,0,1,.18-.05,6.87,6.87,0,0,1,.13-.74,7.71,7.71,0,0,1,.48-1.42,1.89,1.89,0,0,1-.71-.59,1.82,1.82,0,0,1-.24-.43c-.16-.39-.22-.78-.09-.88s.24-.06.67.29c-.36-1.37-.15-1.66,0-1.74.43-.32,1.64,1,2.06,1.45-.18-1.16-.12-1.84.18-2q.7-.45,3.27,2.87c.15-.4.37-.77.68-.85.86-.23,2.31,1.72,2.36,3.81A5.86,5.86,0,0,1,111,18c-.1.15-.21.29-.31.42A1.32,1.32,0,0,1,110.82,19.8Z"/><path class="cls-11" d="M150.66,23.68l-31.35,1.07v.32L121,25h0C129.34,24.58,140.8,24.13,150.66,23.68Z"/><path class="cls-11" d="M100.84,25.47,117.08,25q-.26-5.82-.5-11.62c0-.43,0-.86,0-1.29a5.4,5.4,0,0,0-1.85.5A6.33,6.33,0,0,0,112,15.15h0a10.2,10.2,0,0,0-1.18,3h0l-.06.25a14.2,14.2,0,0,0-.25,1.8h0a17.25,17.25,0,0,0,.22,4.07L108,21.83l-1.09-1-3.39.75a1.2,1.2,0,0,1-.16.62C102.74,23.31,100.79,24.36,100.84,25.47Z"/><path class="cls-9" d="M152.77,22l-1.54,1,5.2-.28c-.4-4.08-1-10.08-1.44-14.17-4.39-.85-28.35-1.86-34.34-1.47Z"/><path class="cls-11" d="M150.66,23.68c3.39-.15,6.59-.31,9.41-.46q-.75-5.71-1.51-11.42a6.16,6.16,0,0,0-4.77-.13C150.66,13.06,148.91,18.06,150.66,23.68Z"/><path class="cls-11" d="M118.76,4.89c0,.37,0,.74,0,1.12,6-.56,35.45.66,40.73,1.69,0,.41.08.84.13,1.29.43,4.3,1,9.9,1.45,14.17h.11c-.43-4.37-1.1-10.61-1.56-15.3-.05-.44-.09-.87-.13-1.29C154.23,5.54,124.67,4.32,118.76,4.89Z"/><path class="cls-11" d="M82.53,26l2-.05C83.59,22,82.52,19,82,19.13S81.79,22.18,82.53,26Z"/><path class="cls-10" d="M65.36,26.25,98,25.37a54.2,54.2,0,0,1,9.23-8.4,55.83,55.83,0,0,1,9.55-5.5q-.14-3.3-.28-6.58a89.48,89.48,0,0,0-23,2.81A49.54,49.54,0,0,0,73,18.1,53.79,53.79,0,0,0,65.36,26.25Z"/><path class="cls-11" d="M65.36,26.25l2.39-.07a54,54,0,0,1,6.88-7.24A49.81,49.81,0,0,1,95.15,8.54a88.79,88.79,0,0,1,21.4-2.8c0-.29,0-.57,0-.85a89.48,89.48,0,0,0-23,2.81A49.54,49.54,0,0,0,73,18.1,53.79,53.79,0,0,0,65.36,26.25Z"/><path class="cls-12" d="M10.41,32.26c5.18-1.83,14.45-5.56,27.12-6.86A89.75,89.75,0,0,1,60,26,77.08,77.08,0,0,1,85.6,9.38C94.65,5.85,102.24,5,110.05,4a155.15,155.15,0,0,1,28.39-.56,286.1,286.1,0,0,1,52.28,8.15l7.81,8.66c-3.53-5.4-6.41-9.5-6.41-9.5S190,8.87,164.3,4.89c-20-3.1-24.72-3-36.3-3.51C114.82.75,103.07,2.49,90.15,5.72,76.49,9.14,56.08,23.87,56.08,23.87S22.21,22.55,10.41,32.26Z"/><polygon class="cls-13" points="69.86 25.12 68.45 28.5 64.51 26.25 69.45 21.85 69.86 25.12"/><path class="cls-4" d="M68,24.52c.55,1.78,3.88,2.35,7.44,1.26s3.91-2.25,4.53-4c2-5.69-2.94-3.54-6.5-2.45S67.42,22.74,68,24.52Z"/><path class="cls-2" d="M68,24.52c.55,1.79,3.88,2.35,7.44,1.26a10.72,10.72,0,0,0,2.47-1,15,15,0,0,1-1.6.32c-3.69.56-6.9-.48-7.18-2.32a2,2,0,0,1,.27-1.27C68.23,22.47,67.67,23.57,68,24.52Z"/></g></g></svg>